<svg id="Layer_1" data-name="Layer 1" xmlns="http://www.w3.org/2000/svg" viewBox="0 0 791.54 170.22"><defs><style>.cls-1{fill:#cac2c0;}.cls-2{fill:#a0b8ab;}.cls-3,.cls-6{fill:#cca4c3;}.cls-4{fill:#f7f7f7;}.cls-5{fill:#fff;stroke:#fff;}.cls-5,.cls-6{stroke-miterlimit:10;stroke-width:0.75px;}.cls-6{stroke:#cca4c3;}</style></defs><title>logoArtboard 5 copy</title><path class="cls-1" d="M36.5,102.55a21.44,21.44,0,0,1,8.7,1c8.67,2.5,16.84,7.8,23.68,13.55C76,123.12,78,133.33,79,142.09c0,.3.07.61.1.92.28,1.79.5,3.6.68,5.41.24,2.43,2,9.14-1,10.52a2.58,2.58,0,0,1-1.38.12,29.22,29.22,0,0,1-9.74-3c-9.84-4.77-17.78-12.61-25-20.63a42.78,42.78,0,0,1-6.81-10.17,41.21,41.21,0,0,1-3.9-14.14c-.19-1.94-.57-4.14.36-5.93A5.36,5.36,0,0,1,36.5,102.55Z"/><path class="cls-2" d="M52,36.33c4.33-.24,9.11,2.24,12.76,4.12A81.77,81.77,0,0,1,78.4,49.8C84.49,54.66,90.93,60.88,94,68.16c.91,2.18,1.51,4.66.72,6.88a9.57,9.57,0,0,1-4.56,4.73c-13.17,7.54-31.33-.39-40.9-10.5a29,29,0,0,1-7.72-13.82c-1.08-5.24-.11-11,3.27-15.17a10.47,10.47,0,0,1,5.26-3.65A9.21,9.21,0,0,1,52,36.33Z"/><path class="cls-3" d="M108.06,73.3A28.18,28.18,0,0,1,112,58.4,37.4,37.4,0,0,1,133.6,41.56c.88-.25,1.76-.46,2.65-.62,8.66-1.64,18,1.64,24.78,7,12.66,10.1,18.84,27.69,12.06,42.87-2.43,5.46-6.2,10.35-7.83,16.1-1.59,5.59-.59,10.91-.49,16.56.06,4.06.48,9.45-1,13.32a31.26,31.26,0,0,1-5.61,9.92c-3.55,4-9.61,5.27-14.74,4.24a22.77,22.77,0,0,1-13.07-8.42c-4.31-5.47-5.69-12-7.9-18.36s-4.34-12.82-6.41-19.27c-1.79-5.57-3.2-11.28-5.07-16.81A48,48,0,0,1,108.06,73.3Z"/><path class="cls-4" d="M142,49.25a43.63,43.63,0,0,1,10.92-5c1-.32,1.26.46,1.46,1.15a83.56,83.56,0,0,1,2.88,14.51,67.31,67.31,0,0,1,.6,8.74c-.05,1.45.72,1.84,2,1.43,8.55-2.71,17.4-2.81,26.23-3,3.23-.08,3.61.28,3.31,3.41-1.19,12.19-4.53,23.71-11.07,34.18a12.86,12.86,0,0,0-1,1.67c-.4.93-.25,1.63.92,1.86,4.15.8,8.13,2.26,12.21,3.32,2.49.65,2.79,1.27,1.48,3.53-7.11,12.29-16.93,21.57-30,27.3s-26.52,6.34-40.34,4.76a10.48,10.48,0,0,1-4.82-1.32c3,.19,5.89.53,8.84.53,12.47,0,24.54-1.89,35.89-7.51A57.7,57.7,0,0,0,185,117.28c1.09-1.72.87-2.2-1.1-2.64-3.1-.7-6.11-1.79-9.3-2.1a2.94,2.94,0,0,0-2.68.78c-9.85,10.48-22.37,16.05-36,19.38a127.69,127.69,0,0,1-24.68,3.45,11.35,11.35,0,0,0-6.55,2.49,49.71,49.71,0,0,1-21.5,9.08,70.81,70.81,0,0,1-44.63-7.09,59.17,59.17,0,0,1-26.74-27.46c-1-2-.83-2.28,1.44-2.51,3.23-.32,6.38-1.2,9.65-1.25,1.52,0,1.52-.84.91-2a91.19,91.19,0,0,1-5.21-10.24A86.8,86.8,0,0,1,12.31,70c-.1-1.71.85-1.92,2.19-1.9a153.09,153.09,0,0,1,18.64,1.42,77.1,77.1,0,0,1,24.25,7.56.8.8,0,0,1,.37.43A119.13,119.13,0,0,0,46.31,74a103,103,0,0,0-27.8-3.17c-2.55.09-2.94.57-2.54,2.9a89.42,89.42,0,0,0,7,23.22,61.43,61.43,0,0,0,6.44,10.66,3,3,0,0,0,2.83,1.33,89.41,89.41,0,0,1,29.38,2.69c13,3.39,24.43,9.79,33.42,20.05.5.58,1.35,1.13,1.07,1.95s-1.26.44-1.92.54a86.85,86.85,0,0,1-40.25-3C43,127.62,34.16,121,27.08,112A3,3,0,0,0,24,110.6c-2.83.44-5.65.85-8.48,1.28-1.54.23-1.78.93-1,2.28a57.9,57.9,0,0,0,33.78,26.66,76.16,76.16,0,0,0,34.54,2.3c6.3-1,11.87-3.94,17.22-7.44,4-2.66,6.48-5.72,7-10.77.74-7.06,3.86-13.44,7.19-19.66,7.77-14.5,19.54-24.61,34.54-31a5.63,5.63,0,0,0,3.86-5.11,88.8,88.8,0,0,0,.11-20.61c-.19-1.77-1-2.24-2.62-1.74C147.4,47.61,144.68,48.42,142,49.25Zm-28.87,72c.18.71-.22,1.52.46,1.9s1.15-.38,1.63-.75c1.94-1.52,3.8-3.15,5.77-4.63,13.69-10.3,29-14,46-11.56,6.11.89,5,1.61,8.49-4.11a10.67,10.67,0,0,0,.63-1.21,85.91,85.91,0,0,0,7.68-26.06c.35-2.69.23-3-2.52-2.9a133.44,133.44,0,0,0-23.41,2.48,57.15,57.15,0,0,0-29.1,14.86A50,50,0,0,0,113.1,121.22Zm-71.68-11c-2.34,0-4.68,0-7,0-.67,0-1.58-.38-1.92.47s.52,1.28,1,1.76A57.84,57.84,0,0,0,53,125.72a84.56,84.56,0,0,0,24.95,5.72,94.64,94.64,0,0,0,10.51.35c.63,0,1.43.15,1.78-.52s-.39-1.26-.76-1.83a5.6,5.6,0,0,0-.59-.77,53,53,0,0,0-17-11.85A76.25,76.25,0,0,0,41.42,110.18Zm117.85,1.26h0c-2.4,0-4.82-.19-7.2,0-15.25,1.46-27.3,9.27-38.16,19.39-.47.44-1,.94-.71,1.67s1,.48,1.56.48a114.84,114.84,0,0,0,12.84-.5,76.74,76.74,0,0,0,19.83-4.69,53.15,53.15,0,0,0,19.94-14.22c.38-.41,1-.82.64-1.5s-1-.64-1.53-.65C164.08,111.42,161.68,111.44,159.27,111.44Z"/><path class="cls-4" d="M94,118.88C84.4,109.71,76.22,99.58,71.47,87c-3.06-8.08-4.73-16.32-3.25-25a3.48,3.48,0,0,0-1.39-3.58,105.4,105.4,0,0,0-16.9-11.13c-1.4-.74-1.9-.18-2.37,1.14C46,52.85,45.4,57.41,44.67,62a16.21,16.21,0,0,1-.34-6,57,57,0,0,1,1.94-10.33c.38-1.41,1-1.86,2.54-1.31a100.53,100.53,0,0,1,19,8.92c1.4.87,2,.56,2.55-.91C76.12,36.24,86.24,23.25,98.77,12c1.3-1.18,2.2-1.06,3.45.13,8.14,7.76,15.33,16.26,20.64,26.23,4.84,9.11,8.36,18.6,8,29.14a16.63,16.63,0,0,1-.23,2.52c-.84-4.44-1.42-8.93-2.79-13.25-3.78-11.95-10.5-22.11-19-31.18-2.13-2.27-4.34-4.48-6.49-6.73-1.21-1.26-2.28-1.38-3.62,0-7.94,8-15,16.71-20,27a56.37,56.37,0,0,0-4.86,35.48C75.57,90.16,79.8,98,84.49,105.55,87.36,110.19,90.8,114.43,94,118.88Z"/><path class="cls-5" d="M220.8,58.66h19.42c9.9,0,14.66,5.67,14.66,12.54,0,5.07-3.1,9.45-8.46,11.41,8.23.53,14.05,6.88,14.05,14.51,0,7.86-6.5,14.44-15.26,14.44H220.8Zm19.42,23.88c8.39,0,13.6-5.14,13.6-11.34s-4.46-11.48-13.6-11.48H221.86V82.54Zm5,28c8.16,0,14.2-6,14.2-13.38,0-7.48-6-13.52-14.2-13.52H221.86v26.9Z"/><path class="cls-5" d="M272.56,58.66H295c10.28,0,16,6.57,16,14.58,0,7.26-5,13.46-13.83,14.36l13.83,24h-1.21L296,87.68H273.62v23.88h-1.06Zm22.44,28c9.6,0,15-6.05,15-13.38s-5.36-13.52-15-13.52H273.62v26.9Z"/><path class="cls-5" d="M323.86,92.14V58.66h1.06V92.14c0,11.33,8.54,19.11,19.8,19.11s19.8-7.78,19.8-19.11V58.66h1.06V92.14c0,11.94-9,20.17-20.86,20.17S323.86,104.08,323.86,92.14Z"/><path class="cls-5" d="M379.93,58.66h1.66l37.94,51.84V58.66h1.06v52.9H419l-38-52v52h-1.06Z"/><path class="cls-5" d="M505.59,85.11a27.19,27.19,0,0,1,27.2-27.21,26.16,26.16,0,0,1,21.54,10.58l-.76.68A25.22,25.22,0,0,0,532.79,59a26.15,26.15,0,0,0,0,52.29,25.24,25.24,0,0,0,20.48-9.82V85.64H531.81V84.58h22.52v17.15a26.14,26.14,0,0,1-21.54,10.58A27.18,27.18,0,0,1,505.59,85.11Z"/><path class="cls-5" d="M564.91,85.11a27.2,27.2,0,1,1,27.2,27.2A27.19,27.19,0,0,1,564.91,85.11Zm53.35,0a26.15,26.15,0,1,0-26.15,26.14A26.17,26.17,0,0,0,618.26,85.11Z"/><path class="cls-5" d="M631.4,58.66h1.66l24.79,43.45,24.78-43.45h1.67v52.9h-1.06V59.87l-24.56,43.07H657L632.46,59.87v51.69H631.4Z"/><path class="cls-5" d="M698.65,58.66h36.57v1.06H699.71V84.58h24.18v1.06H699.71V110.5h35.51v1.06H698.65Z"/><path class="cls-5" d="M743.15,102.94l.91-.68c2,5.37,8,9,17.68,9,12.85,0,18.67-5.36,18.67-12.61,0-9.22-8.54-11.42-17.3-13.38-9.22-2.12-18.82-3.93-18.67-13.68.08-7.18,6.5-13.68,17.38-13.68,8.77,0,14.58,4.16,16.55,9.83l-1,.53c-1.82-5.52-7.48-9.37-15.49-9.37-10.58,0-16.33,6.19-16.4,12.69-.15,8.84,8.91,10.58,18,12.62s18,4.46,18,14.44c0,7.93-6.5,13.67-19.65,13.67C751.47,112.31,745.42,108.38,743.15,102.94Z"/><polygon class="cls-6" points="431.92 111.56 432.9 111.56 452.55 59.19 472.12 111.56 473.1 111.56 453.45 58.66 451.56 58.66 431.92 111.56"/><circle class="cls-3" cx="481.43" cy="105.1" r="6.46"/></svg>