<svg xmlns="http://www.w3.org/2000/svg" viewBox="0 0 770.64 147.97"><defs><style>.cls-1{fill:#cac2c0;}.cls-2{fill:#a0b8ab;}.cls-3,.cls-6{fill:#cca4c3;}.cls-4,.cls-5{fill:#5b5a60;}.cls-5{stroke:#5b5a60;}.cls-5,.cls-6{stroke-miterlimit:10;stroke-width:0.75px;}.cls-6{stroke:#cca4c3;}</style></defs><title>logoAsset 1</title><g id="Layer_2" data-name="Layer 2"><g id="Layer_1-2" data-name="Layer 1"><path class="cls-1" d="M25.29,91.42A21.44,21.44,0,0,1,34,92.48c8.67,2.5,16.84,7.8,23.69,13.54,7.1,6,9.09,16.19,10.11,24.94,0,.31.07.62.1.92.28,1.8.49,3.61.67,5.42.24,2.43,2,9.14-1,10.52a2.78,2.78,0,0,1-1.38.12,29.6,29.6,0,0,1-9.74-3c-9.84-4.77-17.78-12.61-25-20.63a43.29,43.29,0,0,1-6.81-10.17A41.73,41.73,0,0,1,20.73,100c-.19-2-.57-4.14.37-5.93A5.36,5.36,0,0,1,25.29,91.42Z"/><path class="cls-2" d="M40.74,25.21c4.34-.24,9.11,2.24,12.77,4.11A82.79,82.79,0,0,1,67.2,38.67C73.28,43.54,79.72,49.76,82.79,57c.92,2.17,1.52,4.66.72,6.88A9.51,9.51,0,0,1,79,68.65c-13.18,7.53-31.33-.4-40.9-10.5a29.07,29.07,0,0,1-7.72-13.82c-1.09-5.24-.12-11,3.26-15.17a10.5,10.5,0,0,1,5.27-3.65A9.12,9.12,0,0,1,40.74,25.21Z"/><path class="cls-3" d="M96.85,62.18a28.23,28.23,0,0,1,3.91-14.91A37.39,37.39,0,0,1,122.4,30.44q1.3-.37,2.64-.63c8.66-1.63,18,1.64,24.78,7,12.67,10.09,18.84,27.69,12.07,42.87-2.44,5.46-6.21,10.34-7.84,16.1-1.58,5.59-.58,10.9-.49,16.56.07,4.05.48,9.45-1,13.32a31.39,31.39,0,0,1-5.62,9.92c-3.55,4-9.6,5.27-14.74,4.24a22.76,22.76,0,0,1-13.06-8.43c-4.32-5.46-5.7-12-7.91-18.35s-4.34-12.83-6.41-19.27C103,88.24,101.6,82.53,99.72,77A48.31,48.31,0,0,1,96.85,62.18Z"/><path class="cls-4" d="M130.76,38.12a44,44,0,0,1,10.92-5c1-.33,1.27.46,1.46,1.15A82.27,82.27,0,0,1,146,48.8a67.19,67.19,0,0,1,.6,8.74c-.05,1.45.72,1.84,2,1.43,8.55-2.71,17.4-2.81,26.23-3,3.23-.08,3.62.27,3.31,3.41-1.19,12.19-4.53,23.7-11.06,34.18a12.94,12.94,0,0,0-1,1.67c-.4.92-.25,1.63.93,1.85,4.15.8,8.12,2.26,12.21,3.33,2.48.65,2.78,1.27,1.47,3.53-7.1,12.29-16.93,21.57-30,27.29s-26.53,6.34-40.34,4.76a10.28,10.28,0,0,1-4.82-1.31c2.94.18,5.89.53,8.83.52,12.48,0,24.54-1.88,35.89-7.5a57.8,57.8,0,0,0,23.55-21.52c1.09-1.72.86-2.2-1.11-2.65-3.1-.69-6.11-1.78-9.29-2.09a3,3,0,0,0-2.69.78c-9.85,10.48-22.36,16-36,19.38A128.47,128.47,0,0,1,100,125a11.46,11.46,0,0,0-6.55,2.48,49.56,49.56,0,0,1-21.5,9.09,70.82,70.82,0,0,1-44.63-7.1A59.15,59.15,0,0,1,.57,102.05c-1-2-.82-2.28,1.44-2.51,3.23-.33,6.39-1.21,9.66-1.26,1.51,0,1.52-.83.91-1.94A88.86,88.86,0,0,1,7.37,86.09,87,87,0,0,1,1.1,58.88C1,57.16,2,57,3.29,57A153.09,153.09,0,0,1,21.93,58.4,77,77,0,0,1,46.18,66a.79.79,0,0,1,.37.44A114.73,114.73,0,0,0,35.1,62.85,103,103,0,0,0,7.3,59.68c-2.55.08-2.93.56-2.53,2.9a88.65,88.65,0,0,0,7,23.22,60.82,60.82,0,0,0,6.44,10.66,2.93,2.93,0,0,0,2.82,1.32,90,90,0,0,1,29.39,2.69c13,3.4,24.43,9.79,33.41,20.06.5.57,1.35,1.13,1.08,1.94s-1.27.45-1.93.55a86.73,86.73,0,0,1-40.25-3c-11-3.52-19.82-10.14-26.9-19.15a3,3,0,0,0-3.13-1.39c-2.82.44-5.65.85-8.47,1.27-1.54.24-1.79.94-1,2.29A58,58,0,0,0,37.06,129.7,76.2,76.2,0,0,0,71.61,132c6.29-1,11.86-3.94,17.21-7.45,4.06-2.65,6.48-5.72,7-10.76.74-7.06,3.85-13.45,7.18-19.66,7.77-14.5,19.54-24.61,34.54-31A5.64,5.64,0,0,0,141.41,58a88.72,88.72,0,0,0,.11-20.6c-.18-1.77-1-2.24-2.61-1.74C136.2,36.49,133.48,37.3,130.76,38.12Zm-28.86,72c.17.71-.22,1.52.45,1.9s1.16-.38,1.63-.75c1.94-1.52,3.8-3.15,5.77-4.63,13.69-10.3,29.05-14,45.95-11.56,6.11.88,5,1.6,8.5-4.11.24-.39.43-.8.63-1.21a86.65,86.65,0,0,0,7.68-26.06c.34-2.69.22-3-2.52-2.91a135.49,135.49,0,0,0-23.42,2.48,57.09,57.09,0,0,0-29.09,14.87A50,50,0,0,0,101.9,110.1Zm-71.69-11c-2.34,0-4.68,0-7,0-.67,0-1.58-.37-1.91.48s.51,1.28,1,1.75a57.84,57.84,0,0,0,19.5,13.3,84.71,84.71,0,0,0,25,5.73,92.2,92.2,0,0,0,10.51.34c.62,0,1.42.16,1.78-.51s-.4-1.26-.77-1.83a4.91,4.91,0,0,0-.59-.77,52.88,52.88,0,0,0-17-11.85A76.43,76.43,0,0,0,30.21,99.05Zm117.86,1.27h0c-2.4,0-4.83-.2-7.21,0-15.24,1.46-27.3,9.26-38.16,19.39-.47.44-1,.94-.71,1.67s1,.48,1.57.48a114.67,114.67,0,0,0,12.83-.51,77,77,0,0,0,19.83-4.68,53.3,53.3,0,0,0,19.95-14.22c.37-.42,1-.82.64-1.5s-1-.65-1.53-.65C152.87,100.3,150.47,100.32,148.07,100.32Z"/><path class="cls-4" d="M82.74,107.75C73.19,98.59,65,88.46,60.27,75.9c-3.06-8.08-4.74-16.33-3.26-25a3.48,3.48,0,0,0-1.39-3.58A105.76,105.76,0,0,0,38.73,36.21c-1.41-.75-1.91-.18-2.38,1.14-1.55,4.37-2.16,8.93-2.89,13.5a16.35,16.35,0,0,1-.33-6,56.81,56.81,0,0,1,1.93-10.33c.38-1.41,1-1.86,2.54-1.32a100.6,100.6,0,0,1,19,8.93c1.41.87,2,.56,2.55-.91C64.91,25.12,75,12.13,87.56.82c1.3-1.17,2.2-1,3.45.14,8.14,7.76,15.33,16.25,20.64,26.23,4.85,9.11,8.37,18.59,8,29.14a16.72,16.72,0,0,1-.22,2.52c-.84-4.45-1.43-8.93-2.79-13.25-3.79-12-10.51-22.11-19-31.18-2.13-2.27-4.33-4.48-6.49-6.73-1.21-1.26-2.28-1.38-3.61,0-7.94,8-15.05,16.71-20,27A56.31,56.31,0,0,0,62.7,70.11C64.37,79,68.59,86.83,73.29,94.43,76.16,99.07,79.59,103.3,82.74,107.75Z"/><path class="cls-5" d="M209.59,47.54H229c9.9,0,14.66,5.66,14.66,12.54,0,5.06-3.1,9.45-8.46,11.41,8.24.53,14,6.88,14,14.51,0,7.86-6.49,14.43-15.26,14.43H209.59ZM229,71.42c8.39,0,13.6-5.14,13.6-11.34S238.16,48.59,229,48.59H210.65V71.42Zm5,28c8.16,0,14.21-6,14.21-13.38,0-7.48-6.05-13.53-14.21-13.53H210.65V99.38Z"/><path class="cls-5" d="M261.35,47.54H283.8c10.27,0,16,6.57,16,14.58,0,7.26-5,13.45-13.83,14.36l13.83,24h-1.21L284.78,76.56H262.41v23.87h-1.06Zm22.45,28c9.59,0,15-6,15-13.38s-5.37-13.53-15-13.53H262.41V75.5Z"/><path class="cls-5" d="M312.66,81V47.54h1.06V81c0,11.34,8.54,19.12,19.8,19.12S353.31,92.35,353.31,81V47.54h1.06V81c0,11.94-9,20.18-20.85,20.18S312.66,93,312.66,81Z"/><path class="cls-5" d="M368.73,47.54h1.66l37.93,51.84V47.54h1.06v52.89h-1.59l-38-52v52h-1Z"/><path class="cls-5" d="M494.38,74a27.19,27.19,0,0,1,27.21-27.21,26.13,26.13,0,0,1,21.53,10.58l-.75.68a25.2,25.2,0,0,0-20.78-10.2,26.15,26.15,0,1,0,0,52.29,25.27,25.27,0,0,0,20.48-9.82V74.51H520.6V73.46h22.52V90.61a26.13,26.13,0,0,1-21.53,10.58A27.19,27.19,0,0,1,494.38,74Z"/><path class="cls-5" d="M553.7,74a27.21,27.21,0,1,1,27.2,27.2A27.19,27.19,0,0,1,553.7,74Zm53.35,0a26.15,26.15,0,1,0-26.15,26.14A26.15,26.15,0,0,0,607.05,74Z"/><path class="cls-5" d="M620.19,47.54h1.67L646.64,91l24.79-43.45h1.66v52.89H672V48.75L647.47,91.82h-1.66L621.25,48.75v51.68h-1.06Z"/><path class="cls-5" d="M687.44,47.54H724v1.05H688.5V73.46h24.18v1.05H688.5V99.38H724v1.05H687.44Z"/><path class="cls-5" d="M732,91.82l.91-.68c2,5.36,8,9,17.68,9,12.85,0,18.66-5.36,18.66-12.62,0-9.22-8.54-11.41-17.3-13.37-9.22-2.12-18.82-3.93-18.67-13.68.08-7.18,6.5-13.68,17.38-13.68,8.77,0,14.59,4.16,16.55,9.82l-1,.53c-1.81-5.51-7.48-9.37-15.49-9.37-10.58,0-16.32,6.2-16.4,12.7-.15,8.84,8.92,10.58,18,12.62s18,4.46,18,14.43c0,7.94-6.5,13.68-19.65,13.68C740.26,101.19,734.22,97.26,732,91.82Z"/><polygon class="cls-6" points="420.71 100.43 421.69 100.43 441.34 48.07 460.91 100.43 461.89 100.43 442.25 47.54 440.36 47.54 420.71 100.43"/><circle class="cls-3" cx="470.22" cy="93.98" r="6.46"/></g></g></svg>